<svg width="52" height="40" viewBox="0 0 52 40" fill="none" xmlns="http://www.w3.org/2000/svg">
<path d="M21.3184 0.511719L13.3412 28.0827L11.1406 18.7682C14.3498 18.7682 17.0088 19.6789 19.1178 21.5004C21.2267 23.3219 22.2811 25.7644 22.2811 28.8279C22.2811 31.8913 21.2267 34.3752 19.1178 36.2795C17.0088 38.101 14.3956 39.0117 11.2781 39.0117C7.97719 39.0117 5.27228 38.0596 3.16337 36.1553C1.05446 34.251 0 31.8085 0 28.8279C0 27.8343 0.0458459 26.9235 0.137538 26.0956C0.320921 25.1848 0.641843 24.1085 1.1003 22.8666C1.55876 21.6246 2.2006 20.0515 3.02583 18.1472L10.3153 0.511719H21.3184ZM50.4764 0.511719L42.4992 28.0827L40.2986 18.7682C43.5078 18.7682 46.1669 19.6789 48.2758 21.5004C50.3847 23.3219 51.4391 25.7644 51.4391 28.8279C51.4391 31.8913 50.3847 34.3752 48.2758 36.2795C46.1669 38.101 43.5536 39.0117 40.4361 39.0117C37.1352 39.0117 34.4303 38.0596 32.3214 36.1553C30.2125 34.251 29.158 31.8085 29.158 28.8279C29.158 27.8343 29.2039 26.9235 29.2956 26.0956C29.4789 25.1848 29.7999 24.1085 30.2583 22.8666C30.7168 21.6246 31.3586 20.0515 32.1838 18.1472L39.4734 0.511719H50.4764Z" fill="#BCC5AF"/>
</svg>
