<svg aria-hidden="true" xmlns="http://www.w3.org/2000/svg" xmlns:xlink="http://www.w3.org/1999/xlink"><symbol viewBox="0 0 21 14" fill="none" id="arrow" xmlns="http://www.w3.org/2000/svg">
<path d="M0.541016 8.27308L0.541016 6.50888L17.222 6.50888L12.741 1.91635L13.8339 0.824219L20.2413 7.39098L13.8339 13.9577L12.741 12.8656L17.222 8.27308L0.541016 8.27308Z" fill="currentColor"/>
</symbol><symbol viewBox="0 0 11 16" fill="none" id="bookmark" xmlns="http://www.w3.org/2000/svg">
<path d="M0 3C0 1.34315 1.34315 0 3 0H8C9.65685 0 11 1.34315 11 3V16L5.5 13.3L0 16V3Z" fill="currentColor"/>
</symbol><symbol viewBox="0 0 17 12" fill="none" id="burger" xmlns="http://www.w3.org/2000/svg">
<path d="M8 1C8 0.447715 8.44771 0 9 0H16C16.5523 0 17 0.447715 17 1C17 1.55228 16.5523 2 16 2H9C8.44771 2 8 1.55228 8 1Z" fill="currentColor"/>
<path d="M0 6C0 5.44772 0.447715 5 1 5H16C16.5523 5 17 5.44772 17 6C17 6.55228 16.5523 7 16 7H1C0.447715 7 0 6.55228 0 6Z" fill="currentColor"/>
<path d="M0 11C0 10.4477 0.447715 10 1 10H16C16.5523 10 17 10.4477 17 11C17 11.5523 16.5523 12 16 12H1C0.447715 12 0 11.5523 0 11Z" fill="currentColor"/>
</symbol><symbol viewBox="0 0 24 25" fill="none" id="cart" xmlns="http://www.w3.org/2000/svg">
    <path d="M20.1999 6.5H18.3999C18.3999 4.9087 17.7678 3.38258 16.6426 2.25736C15.5174 1.13214 13.9912 0.5 12.3999 0.5C10.8086 0.5 9.28249 1.13214 8.15728 2.25736C7.03206 3.38258 6.39992 4.9087 6.39992 6.5H3.3999C2.60425 6.5 1.84119 6.81607 1.27858 7.37868C0.715972 7.94129 0.399902 8.70435 0.399902 9.5V19.5C0.40149 20.8256 0.928784 22.0964 1.86612 23.0338C2.80346 23.9711 4.0743 24.4984 5.3999 24.5H18.1999C19.5255 24.4984 20.7964 23.9711 21.7337 23.0338C22.671 22.0964 23.1983 20.8256 23.1999 19.5V9.5C23.1999 8.70435 22.8839 7.94129 22.3212 7.37868C21.7586 6.81607 20.9956 6.5 20.1999 6.5ZM12.3999 2.5C13.4608 2.5 14.4782 2.92143 15.2284 3.67157C15.9785 4.42172 16.3999 5.43913 16.3999 6.5H8.39992C8.39992 5.43913 8.82134 4.42172 9.57149 3.67157C10.3217 2.92143 11.3391 2.5 12.3999 2.5ZM21.1999 19.5C21.1999 20.2956 20.8839 21.0587 20.3212 21.6213C19.7586 22.1839 18.9956 22.5 18.1999 22.5H5.3999C4.60425 22.5 3.84119 22.1839 3.27858 21.6213C2.71597 21.0587 2.3999 20.2956 2.3999 19.5V9.5C2.3999 9.23478 2.50526 8.98043 2.69279 8.79289C2.88033 8.60536 3.13468 8.5 3.3999 8.5H6.39992V10.5C6.39992 10.7652 6.50527 11.0196 6.69281 11.2071C6.88035 11.3946 7.1347 11.5 7.39992 11.5C7.66513 11.5 7.91949 11.3946 8.10702 11.2071C8.29456 11.0196 8.39992 10.7652 8.39992 10.5V8.5H16.3999V10.5C16.3999 10.7652 16.5053 11.0196 16.6928 11.2071C16.8804 11.3946 17.1347 11.5 17.3999 11.5C17.6651 11.5 17.9195 11.3946 18.107 11.2071C18.2946 11.0196 18.3999 10.7652 18.3999 10.5V8.5H20.1999C20.4651 8.5 20.7195 8.60536 20.907 8.79289C21.0946 8.98043 21.1999 9.23478 21.1999 9.5V19.5Z" fill="currentColor"/>
</symbol><symbol viewBox="0 0 17 16" fill="none" id="catalog" xmlns="http://www.w3.org/2000/svg">
<path fill-rule="evenodd" clip-rule="evenodd" d="M8.27539 7.95377C8.27539 9.61062 6.93224 10.9538 5.27539 10.9538C3.61854 10.9538 2.27539 9.61062 2.27539 7.95377C2.27539 6.29691 3.61854 4.95377 5.27539 4.95377C6.93224 4.95377 8.27539 6.29691 8.27539 7.95377ZM5.27539 8.99674C5.82768 8.99674 6.27539 8.54902 6.27539 7.99674C6.27539 7.48519 5.89129 7.06336 5.39576 7.00391C5.3563 6.99917 5.31613 6.99674 5.27539 6.99674C5.23465 6.99674 5.19448 6.99917 5.15502 7.00391C4.65949 7.06336 4.27539 7.48519 4.27539 7.99674C4.27539 8.54902 4.72311 8.99674 5.27539 8.99674Z" fill="currentColor"/>
<path fill-rule="evenodd" clip-rule="evenodd" d="M17 3C17 4.65685 15.6569 6 14 6C12.3431 6 11 4.65685 11 3C11 1.34315 12.3431 0 14 0C15.6569 0 17 1.34315 17 3ZM14 4.04297C14.0964 4.04297 14.1895 4.02934 14.2777 4.00391C14.6949 3.88356 15 3.4989 15 3.04297C15 2.49068 14.5523 2.04297 14 2.04297C13.4477 2.04297 13 2.49068 13 3.04297C13 3.4989 13.3051 3.88356 13.7223 4.00391C13.8105 4.02934 13.9036 4.04297 14 4.04297Z" fill="currentColor"/>
<path fill-rule="evenodd" clip-rule="evenodd" d="M17 12.9481C17 14.6049 15.6569 15.9481 14 15.9481C12.3431 15.9481 11 14.6049 11 12.9481C11 11.2912 12.3431 9.94808 14 9.94808C15.6569 9.94808 17 11.2912 17 12.9481ZM14 13.9911C14.5523 13.9911 15 13.5433 15 12.9911C15 12.4935 14.6366 12.0808 14.1608 12.0039C14.1084 11.9954 14.0547 11.9911 14 11.9911C13.9453 11.9911 13.8916 11.9954 13.8392 12.0039C13.3634 12.0808 13 12.4935 13 12.9911C13 13.5433 13.4477 13.9911 14 13.9911Z" fill="currentColor"/>
<path fill-rule="evenodd" clip-rule="evenodd" d="M9 2.00391C8.44772 2.00391 8 2.45162 8 3.00391C8 3.55619 8.44772 4.00391 9 4.00391H13.7223C13.3051 3.88356 13 3.4989 13 3.04297C13 2.49068 13.4477 2.04297 14 2.04297C14.5523 2.04297 15 2.49068 15 3.04297C15 3.4989 14.6949 3.88356 14.2777 4.00391H16C16.5523 4.00391 17 3.55619 17 3.00391C17 2.45162 16.5523 2.00391 16 2.00391H9Z" fill="currentColor"/>
<path fill-rule="evenodd" clip-rule="evenodd" d="M1 12.0039C0.447715 12.0039 0 12.4516 0 13.0039C0 13.5562 0.447715 14.0039 1 14.0039H16C16.5523 14.0039 17 13.5562 17 13.0039C17 12.4516 16.5523 12.0039 16 12.0039H14.1608C14.6366 12.0808 15 12.4935 15 12.9911C15 13.5433 14.5523 13.9911 14 13.9911C13.4477 13.9911 13 13.5433 13 12.9911C13 12.4935 13.3634 12.0808 13.8392 12.0039H1Z" fill="currentColor"/>
<path fill-rule="evenodd" clip-rule="evenodd" d="M1 7.00391C0.447715 7.00391 0 7.45162 0 8.00391C0 8.55619 0.447715 9.00391 1 9.00391H16C16.5523 9.00391 17 8.55619 17 8.00391C17 7.45162 16.5523 7.00391 16 7.00391H5.39576C5.89129 7.06336 6.27539 7.48519 6.27539 7.99674C6.27539 8.54902 5.82768 8.99674 5.27539 8.99674C4.72311 8.99674 4.27539 8.54902 4.27539 7.99674C4.27539 7.48519 4.65949 7.06336 5.15502 7.00391H1Z" fill="currentColor"/>
</symbol><symbol viewBox="0 0 13 10" fill="none" id="check" xmlns="http://www.w3.org/2000/svg">
<path d="M1.83813 3.90015L6.08077 8.14279L4.72228 9.50128L0.479637 5.25864L1.83813 3.90015Z" fill="currentColor"/>
<path d="M3.30806 8.08707L11.0862 0.308896L12.5005 1.72311L4.72228 9.50128L3.30806 8.08707Z" fill="currentColor"/>
</symbol><symbol viewBox="0 0 18 18" fill="none" id="close" xmlns="http://www.w3.org/2000/svg">
<path d="M8.51367 10.415L1.79492 17.1348C1.59968 17.3299 1.28313 17.3299 1.08789 17.1348C0.892654 16.9395 0.892704 16.623 1.08789 16.4277L7.80664 9.70801L8.51367 10.415ZM17.3535 16.4258C17.5484 16.621 17.5486 16.9377 17.3535 17.1328C17.1584 17.328 16.8418 17.3277 16.6465 17.1328L9.92871 10.415L10.6357 9.70801L17.3535 16.4258ZM9.92871 9.00098L9.22168 9.70801L8.51465 9.00098L9.22168 8.29395L9.92871 9.00098ZM1.08984 0.869141C1.28511 0.673954 1.60164 0.673904 1.79688 0.869141L8.51465 7.58691L7.80762 8.29395L1.08984 1.57617C0.894581 1.38091 0.894582 1.0644 1.08984 0.869141ZM16.6445 0.871094C16.8398 0.676047 17.1564 0.675904 17.3516 0.871094C17.5467 1.06629 17.5466 1.38287 17.3516 1.57812L10.6357 8.29395L9.92871 7.58691L16.6445 0.871094Z" fill="currentColor" stroke="currentColor"/>
</symbol><symbol viewBox="0 0 15 16" fill="none" id="cube" xmlns="http://www.w3.org/2000/svg">
<path d="M7.49994 0L0.5 4.00001V12L7.5 16L14.5 12V4.00001L7.49994 0ZM7.00975 14.5994L1.48046 11.4397V5.12051L7.00975 8.28014V14.5994ZM7.49994 7.43977L1.97067 4.28013L7.49994 1.1205L13.0292 4.28013L7.49994 7.43977ZM7.99018 14.5994V8.28011L13.5194 5.12048V11.4397H13.5195L7.99018 14.5994Z" fill="currentColor"/>
</symbol><symbol viewBox="0 0 36 42" fill="none" id="download" xmlns="http://www.w3.org/2000/svg">
<path d="M35.3472 11.7802L23.9488 0.472501C23.7975 0.322537 23.6179 0.203622 23.4202 0.122549C23.2225 0.0414763 23.0107 -0.000166362 22.7968 4.99474e-07H3.25668C2.39296 4.99474e-07 1.56461 0.340384 0.953861 0.946271C0.343114 1.55216 0 2.37392 0 3.23077V38.7692C0 39.6261 0.343114 40.4478 0.953861 41.0537C1.56461 41.6596 2.39296 42 3.25668 42H32.5668C33.4306 42 34.2589 41.6596 34.8697 41.0537C35.4804 40.4478 35.8235 39.6261 35.8235 38.7692V12.9231C35.8237 12.7109 35.7817 12.5007 35.7 12.3046C35.6183 12.1085 35.4984 11.9303 35.3472 11.7802ZM24.4251 5.51452L30.2648 11.3077H24.4251V5.51452ZM32.5668 38.7692H3.25668V3.23077H21.1684V12.9231C21.1684 13.3515 21.34 13.7624 21.6454 14.0653C21.9508 14.3683 22.3649 14.5385 22.7968 14.5385H32.5668V38.7692ZM23.9488 26.3187C24.1002 26.4687 24.2203 26.6468 24.3023 26.8429C24.3842 27.039 24.4264 27.2493 24.4264 27.4615C24.4264 27.6738 24.3842 27.884 24.3023 28.0801C24.2203 28.2762 24.1002 28.4544 23.9488 28.6044L19.0638 33.4506C18.9126 33.6008 18.733 33.7199 18.5353 33.8012C18.3376 33.8825 18.1258 33.9243 17.9118 33.9243C17.6978 33.9243 17.4859 33.8825 17.2882 33.8012C17.0905 33.7199 16.9109 33.6008 16.7597 33.4506L11.8747 28.6044C11.5691 28.3013 11.3975 27.8902 11.3975 27.4615C11.3975 27.0329 11.5691 26.6218 11.8747 26.3187C12.1802 26.0155 12.5946 25.8453 13.0267 25.8453C13.4588 25.8453 13.8732 26.0155 14.1788 26.3187L16.2834 28.4086V19.3846C16.2834 18.9562 16.455 18.5453 16.7604 18.2424C17.0657 17.9394 17.4799 17.7692 17.9118 17.7692C18.3436 17.7692 18.7578 17.9394 19.0632 18.2424C19.3685 18.5453 19.5401 18.9562 19.5401 19.3846V28.4086L21.6447 26.3187C21.796 26.1685 21.9756 26.0493 22.1732 25.968C22.3709 25.8867 22.5828 25.8449 22.7968 25.8449C23.0108 25.8449 23.2227 25.8867 23.4203 25.968C23.618 26.0493 23.7976 26.1685 23.9488 26.3187Z" fill="currentColor"/>
</symbol><symbol viewBox="0 0 9 7" fill="none" id="dropdown" xmlns="http://www.w3.org/2000/svg">
<path d="M3.22319 5.22319L7.46583 0.980547L8.48528 2L4.24264 6.24264L3.22319 5.22319Z" fill="currentColor"/>
<path d="M4.24264 6.24264L0 2L1.01732 0.982682L5.25996 5.22532L4.24264 6.24264Z" fill="currentColor"/>
</symbol><symbol viewBox="0 0 19 19" fill="none" id="eco" xmlns="http://www.w3.org/2000/svg">
<path d="M17.6732 0C14.847 0 8.03323 0.454251 3.94496 4.54252C1.30853 7.17895 1.07504 11.2987 3.22734 14.2079L0 17.4353L1.56471 19L4.79205 15.7727C6.09948 16.7398 7.64869 17.2322 9.20122 17.2322C11.1034 17.2322 13.0062 16.5063 14.4575 15.055C19.7137 9.79878 18.9629 0.0370707 18.9629 0.0370707C18.9629 0.0370707 18.481 0 17.6732 0ZM3.98093 9.79878C3.98093 8.40448 4.5237 7.09319 5.50967 6.10722C8.11013 3.50676 12.1563 2.62426 15.0943 2.34042L4.81252 12.6228C4.27306 11.7879 3.98093 10.8163 3.98093 9.79878ZM12.8928 13.4898C11.9068 14.4757 10.5961 15.0185 9.20122 15.0185C8.18372 15.0185 7.21214 14.7264 6.37723 14.1869L16.6563 3.90789C16.3708 6.85416 15.4872 10.8954 12.8928 13.4898Z" fill="currentColor"/>
</symbol><symbol viewBox="0 0 20 19" fill="none" id="fav" xmlns="http://www.w3.org/2000/svg">
<path d="M10 18.9984L8.55 17.6984C6.86667 16.1818 5.475 14.8734 4.375 13.7734C3.275 12.6734 2.4 11.6858 1.75 10.8104C1.1 9.9351 0.646 9.1311 0.388 8.39844C0.13 7.66577 0.000666667 6.91577 0 6.14844C0 4.58177 0.525 3.27344 1.575 2.22344C2.625 1.17344 3.93333 0.648437 5.5 0.648438C6.36667 0.648438 7.19167 0.831771 7.975 1.19844C8.75833 1.5651 9.43333 2.08177 10 2.74844C10.5667 2.08177 11.2417 1.5651 12.025 1.19844C12.8083 0.831771 13.6333 0.648438 14.5 0.648438C16.0667 0.648438 17.375 1.17344 18.425 2.22344C19.475 3.27344 20 4.58177 20 6.14844C20 6.9151 19.871 7.6651 19.613 8.39844C19.355 9.13177 18.9007 9.93577 18.25 10.8104C17.5993 11.6851 16.7243 12.6728 15.625 13.7734C14.5257 14.8741 13.134 16.1824 11.45 17.6984L10 18.9984ZM10 16.2984C11.6 14.8651 12.9167 13.6361 13.95 12.6114C14.9833 11.5868 15.8 10.6951 16.4 9.93644C17 9.17777 17.4167 8.50244 17.65 7.91044C17.8833 7.31844 18 6.7311 18 6.14844C18 5.14844 17.6667 4.3151 17 3.64844C16.3333 2.98177 15.5 2.64844 14.5 2.64844C13.7167 2.64844 12.9917 2.8691 12.325 3.31044C11.6583 3.75177 11.2 4.31444 10.95 4.99844H9.05C8.8 4.3151 8.34167 3.75277 7.675 3.31144C7.00833 2.8701 6.28333 2.6491 5.5 2.64844C4.5 2.64844 3.66667 2.98177 3 3.64844C2.33333 4.3151 2 5.14844 2 6.14844C2 6.73177 2.11667 7.31944 2.35 7.91144C2.58333 8.50344 3 9.17844 3.6 9.93644C4.2 10.6944 5.01667 11.5861 6.05 12.6114C7.08333 13.6368 8.4 14.8658 10 16.2984Z" fill="currentColor"/>
</symbol><symbol viewBox="0 0 20 19" fill="none" id="fav_full" xmlns="http://www.w3.org/2000/svg">
<path d="M10 18.9984L8.55 17.6984C6.86667 16.1818 5.475 14.8734 4.375 13.7734C3.275 12.6734 2.4 11.6858 1.75 10.8104C1.1 9.9351 0.646 9.1311 0.388 8.39844C0.13 7.66577 0.000666667 6.91577 0 6.14844C0 4.58177 0.525 3.27344 1.575 2.22344C2.625 1.17344 3.93333 0.648437 5.5 0.648438C6.36667 0.648438 7.19167 0.831771 7.975 1.19844C8.75833 1.5651 9.43333 2.08177 10 2.74844C10.5667 2.08177 11.2417 1.5651 12.025 1.19844C12.8083 0.831771 13.6333 0.648438 14.5 0.648438C16.0667 0.648438 17.375 1.17344 18.425 2.22344C19.475 3.27344 20 4.58177 20 6.14844C20 6.9151 19.871 7.6651 19.613 8.39844C19.355 9.13177 18.9007 9.93577 18.25 10.8104C17.5993 11.6851 16.7243 12.6728 15.625 13.7734C14.5257 14.8741 13.134 16.1824 11.45 17.6984L10 18.9984Z" fill="currentColor"/>
</symbol><symbol viewBox="0 0 23 23" fill="none" id="geo" xmlns="http://www.w3.org/2000/svg">
<path d="M17.4018 12.8512C16.6595 14.3779 15.6537 15.8988 14.6252 17.2644C13.6495 18.5518 12.6063 19.7851 11.5 20.9587C10.3937 19.7851 9.35047 18.5518 8.37483 17.2644C7.34633 15.8988 6.3405 14.3779 5.59817 12.8512C4.84733 11.3088 4.41667 9.86413 4.41667 8.625C4.41667 6.71876 5.16294 4.89059 6.49133 3.54267C7.81971 2.19475 9.62138 1.4375 11.5 1.4375C13.3786 1.4375 15.1803 2.19475 16.5087 3.54267C17.8371 4.89059 18.5833 6.71876 18.5833 8.625C18.5833 9.86413 18.1512 11.3088 17.4018 12.8512ZM11.5 23C11.5 23 20 14.8264 20 8.625C20 6.33751 19.1045 4.14371 17.5104 2.5262C15.9163 0.908703 13.7543 0 11.5 0C9.24566 0 7.08365 0.908703 5.48959 2.5262C3.89553 4.14371 3 6.33751 3 8.625C3 14.8264 11.5 23 11.5 23Z" fill="currentColor"/>
<path d="M11.5 11.5C10.7044 11.5 9.94129 11.1839 9.37868 10.6213C8.81607 10.0587 8.5 9.29565 8.5 8.5C8.5 7.70435 8.81607 6.94129 9.37868 6.37868C9.94129 5.81607 10.7044 5.5 11.5 5.5C12.2956 5.5 13.0587 5.81607 13.6213 6.37868C14.1839 6.94129 14.5 7.70435 14.5 8.5C14.5 9.29565 14.1839 10.0587 13.6213 10.6213C13.0587 11.1839 12.2956 11.5 11.5 11.5ZM11.5 13C12.6935 13 13.8381 12.5259 14.682 11.682C15.5259 10.8381 16 9.69347 16 8.5C16 7.30653 15.5259 6.16193 14.682 5.31802C13.8381 4.47411 12.6935 4 11.5 4C10.3065 4 9.16193 4.47411 8.31802 5.31802C7.47411 6.16193 7 7.30653 7 8.5C7 9.69347 7.47411 10.8381 8.31802 11.682C9.16193 12.5259 10.3065 13 11.5 13Z" fill="currentColor"/>
</symbol><symbol viewBox="0 0 24 19" fill="none" id="home" xmlns="http://www.w3.org/2000/svg">
<path d="M3.72399 3.70972L0 7.37019L4.47215 11.7365L8.19615 8.10065C10.2389 6.10626 11.9538 4.473 11.9958 4.473C12.0378 4.473 13.7527 6.10626 15.787 8.09244L19.5026 11.7201L21.7471 9.52052L24 7.32916L16.4932 0L11.9958 4.39093L9.76813 2.21598C8.54081 1.01771 7.52364 0.0410367 7.49842 0.0492441C7.4732 0.0492441 5.77513 1.69892 3.72399 3.70972Z" fill="currentColor"/>
<path d="M7.49842 14.6911L9.70928 16.8497C10.9198 18.0315 11.9538 19 11.9958 19C12.0462 19 13.0718 18.0315 14.2907 16.8415L16.4932 14.6911L11.9958 10.3002L7.49842 14.6911Z" fill="currentColor"/>
</symbol><symbol viewBox="0 0 682.667 682.667" xml:space="preserve" class="" id="mail" xmlns="http://www.w3.org/2000/svg"><g><defs><clipPath id="pa" clipPathUnits="userSpaceOnUse"><path d="M0 512h512V0H0Z" fill="currentColor" opacity="1" data-original="#000000"/></clipPath></defs><g clip-path="url(#pa)" transform="matrix(1.33333 0 0 -1.33333 0 682.667)"><path d="M0 0a29.997 29.997 0 0 0-13.368 24.967v.025c0 17.737 14.38 32.116 32.118 32.116h417.763c17.737 0 32.117-14.379 32.117-32.116v-.025c0-10.033-5.012-19.4-13.367-24.967-40.769-27.185-163.615-109.076-209.806-139.876a32.129 32.129 0 0 0-35.651 0C163.614-109.076 40.769-27.185 0 0Z" transform="translate(28.369 375.624)" fill="none" stroke="currentColor" stroke-width="30" stroke-linecap="round" stroke-linejoin="round" stroke-miterlimit="10" stroke-dasharray="none" stroke-opacity="" data-original="#000000" class=""/><path d="M0 0v-289.199a32.096 32.096 0 0 1 9.415-22.718 32.096 32.096 0 0 1 22.718-9.415h417.732a32.096 32.096 0 0 1 22.718 9.415 32.096 32.096 0 0 1 9.415 22.718V0" transform="translate(15.001 400.6)" fill="none" stroke="currentColor" stroke-width="30" stroke-linecap="round" stroke-linejoin="round" stroke-miterlimit="10" stroke-dasharray="none" stroke-opacity="" data-original="#000000" class=""/></g></g></symbol><symbol viewBox="0 0 20 18" fill="none" id="premium" xmlns="http://www.w3.org/2000/svg">
<path d="M15.625 0C15.8798 0 16.1184 0.114235 16.2753 0.306491L16.3373 0.393562L19.879 6.12082C20.0463 6.39148 20.0383 6.72947 19.8663 6.99014L19.8028 7.07393L10.6362 17.7103C10.3255 18.0708 9.77642 18.0948 9.43392 17.7825L9.36384 17.7103L0.197185 7.07393C-0.0111399 6.83223 -0.0568148 6.49719 0.0717102 6.21336L0.121019 6.12082L3.66269 0.393562C3.7949 0.179747 4.01819 0.03879 4.267 0.00688909L4.37501 0H15.625ZM12.9292 7.36364H7.07L9.99917 14.4589L12.9292 7.36364ZM17.37 7.36364H14.7275L12.2967 13.2505L17.37 7.36364ZM5.27167 7.36364H2.62917L7.70167 13.2488L5.27167 7.36364ZM6.395 1.63637H4.84251L2.3125 5.72728H5.20417L6.395 1.63637ZM11.8717 1.63637H8.1275L6.93667 5.72728H13.0625L11.8717 1.63637ZM15.1567 1.63637H13.6042L14.795 5.72728H17.6867L15.1567 1.63637Z" fill="currentColor"/>
</symbol><symbol viewBox="0 0 18 18" fill="none" id="search" xmlns="http://www.w3.org/2000/svg">
<path d="M17.7897 16.73L13.3166 12.2569C14.5356 10.7661 15.1348 8.86379 14.9906 6.94346C14.8463 5.02315 13.9695 3.23175 12.5414 1.9398C11.1133 0.647856 9.2434 -0.0457868 7.31823 0.00234752C5.3931 0.0504818 3.56011 0.83671 2.19841 2.19841C0.836711 3.5601 0.0504813 5.39309 0.00234753 7.31822C-0.045787 9.24335 0.647859 11.1134 1.93981 12.5414C3.23175 13.9694 5.02316 14.8463 6.94348 14.9905C8.86384 15.1349 10.7662 14.5355 12.257 13.3166L16.7301 17.7896C16.8714 17.9262 17.0607 18.0017 17.2572 18C17.4537 17.9982 17.6416 17.9194 17.7806 17.7805C17.9195 17.6415 17.9983 17.4536 18 17.2571C18.0017 17.0606 17.9262 16.8713 17.7897 16.73ZM7.51787 13.5129C6.33213 13.5129 5.17304 13.1613 4.18715 12.5026C3.20126 11.8438 2.43286 10.9075 1.9791 9.81206C1.52535 8.71661 1.40663 7.51117 1.63795 6.34824C1.86927 5.18531 2.44025 4.11709 3.27867 3.27867C4.1171 2.44024 5.18533 1.86927 6.34826 1.63795C7.5112 1.40662 8.71659 1.52535 9.81204 1.9791C10.9075 2.43285 11.8438 3.20125 12.5026 4.18714C13.1613 5.17302 13.513 6.33211 13.513 7.51782C13.5112 9.10726 12.879 10.6311 11.755 11.755C10.6311 12.8789 9.10732 13.5111 7.51787 13.5129Z" fill="currentColor"/>
</symbol><symbol viewBox="0 0 24 24" fill="none" id="user" xmlns="http://www.w3.org/2000/svg">
<path d="M12.4999 12.9997C13.3899 12.9997 14.2599 12.7358 14.9999 12.2414C15.7399 11.7469 16.3167 11.0441 16.6572 10.2219C16.9978 9.39966 17.0869 8.49489 16.9133 7.622C16.7397 6.74911 16.3111 5.94731 15.6818 5.31799C15.0525 4.68867 14.2507 4.2601 13.3778 4.08647C12.5049 3.91284 11.6001 4.00195 10.7779 4.34253C9.95557 4.68311 9.25281 5.25988 8.75836 5.99988C8.26391 6.73988 8 7.60988 8 8.49987C8.00119 9.69294 8.47566 10.8368 9.31929 11.6804C10.163 12.5241 11.3068 12.9985 12.4999 12.9997ZM12.4999 5.49995C13.0932 5.49995 13.6732 5.67591 14.1666 6.00554C14.6599 6.33518 15.0444 6.80369 15.2715 7.35186C15.4985 7.90002 15.5579 8.5032 15.4422 9.08512C15.3264 9.66705 15.0407 10.2016 14.6212 10.6211C14.2016 11.0407 13.6671 11.3264 13.0852 11.4421C12.5032 11.5579 11.9 11.4985 11.3519 11.2714C10.8037 11.0444 10.3352 10.6598 10.0056 10.1665C9.6759 9.6732 9.49995 9.0932 9.49995 8.49987C9.49995 7.70424 9.81597 6.94121 10.3786 6.37862C10.9412 5.81603 11.7043 5.49995 12.4999 5.49995Z" fill="currentColor"/>
<path d="M11.5 14C9.77664 14.0019 8.12449 14.6662 6.90591 15.8473C5.68734 17.0284 5.00191 18.6297 5 20.3C5 20.4856 5.07609 20.6637 5.21153 20.7949C5.34697 20.9263 5.53068 21 5.72222 21C5.91376 21 6.09746 20.9263 6.23291 20.7949C6.36835 20.6637 6.44445 20.4856 6.44445 20.3C6.44445 19.0005 6.97708 17.7542 7.92518 16.8352C8.87325 15.9163 10.1591 15.4 11.5 15.4C12.8408 15.4 14.1268 15.9163 15.0748 16.8352C16.0229 17.7542 16.5555 19.0005 16.5555 20.3C16.5555 20.4856 16.6317 20.6637 16.7671 20.7949C16.9026 20.9263 17.0862 21 17.2778 21C17.4693 21 17.653 20.9263 17.7884 20.7949C17.9239 20.6637 18 20.4856 18 20.3C17.9981 18.6297 17.3126 17.0284 16.094 15.8473C14.8755 14.6662 13.2233 14.0019 11.5 14Z" fill="currentColor"/>
<path fill-rule="evenodd" clip-rule="evenodd" d="M12 22.2C17.6333 22.2 22.2 17.6333 22.2 12C22.2 6.3667 17.6333 1.8 12 1.8C6.36669 1.8 1.8 6.3667 1.8 12C1.8 17.6333 6.36669 22.2 12 22.2ZM12 24C18.6274 24 24 18.6274 24 12C24 5.37258 18.6274 0 12 0C5.37258 0 0 5.37258 0 12C0 18.6274 5.37258 24 12 24Z" fill="currentColor"/>
</symbol><symbol viewBox="0 0 9 16" fill="none" id="zip" xmlns="http://www.w3.org/2000/svg">
<path d="M1.69204 5.39441L5.73457 6.00826L0 15.5L1.69204 5.39441Z" fill="currentColor"/>
<path d="M7.30796 10.6056L3.26543 9.99174L9 0.5L7.30796 10.6056Z" fill="currentColor"/>
</symbol></svg>