<svg width="17" height="23" viewBox="0 0 17 23" fill="none" xmlns="http://www.w3.org/2000/svg">
<path d="M14.4018 12.8512C13.6595 14.3779 12.6537 15.8988 11.6252 17.2644C10.6495 18.5518 9.60627 19.7851 8.5 20.9587C7.3937 19.7851 6.35047 18.5518 5.37483 17.2644C4.34633 15.8988 3.3405 14.3779 2.59817 12.8512C1.84733 11.3088 1.41667 9.86413 1.41667 8.625C1.41667 6.71876 2.16294 4.89059 3.49133 3.54267C4.81971 2.19475 6.62138 1.4375 8.5 1.4375C10.3786 1.4375 12.1803 2.19475 13.5087 3.54267C14.8371 4.89059 15.5833 6.71876 15.5833 8.625C15.5833 9.86413 15.1512 11.3088 14.4018 12.8512ZM8.5 23C8.5 23 17 14.8264 17 8.625C17 6.33751 16.1045 4.14371 14.5104 2.5262C12.9163 0.908703 10.7543 0 8.5 0C6.24566 0 4.08365 0.908703 2.48959 2.5262C0.895533 4.14371 3.35923e-08 6.33751 0 8.625C0 14.8264 8.5 23 8.5 23Z" fill="#262626"/>
<path d="M14.4018 12.8512C13.6595 14.3779 12.6537 15.8988 11.6252 17.2644C10.6495 18.5518 9.60627 19.7851 8.5 20.9587C7.3937 19.7851 6.35047 18.5518 5.37483 17.2644C4.34633 15.8988 3.3405 14.3779 2.59817 12.8512C1.84733 11.3088 1.41667 9.86413 1.41667 8.625C1.41667 6.71876 2.16294 4.89059 3.49133 3.54267C4.81971 2.19475 6.62138 1.4375 8.5 1.4375C10.3786 1.4375 12.1803 2.19475 13.5087 3.54267C14.8371 4.89059 15.5833 6.71876 15.5833 8.625C15.5833 9.86413 15.1512 11.3088 14.4018 12.8512Z" fill="#262626"/>
<path d="M5.0557 6.75634L3.50586 8.3181L5.36707 10.181L6.91692 8.62976C7.76706 7.77884 8.48076 7.082 8.49825 7.082C8.51574 7.082 9.22944 7.77884 10.0761 8.62626L11.6224 10.174L12.5565 9.23555L13.4941 8.3006L10.37 5.17357L8.49825 7.04698L7.57114 6.11903C7.06036 5.60778 6.63704 5.19108 6.62654 5.19458C6.61605 5.19458 5.90934 5.89842 5.0557 6.75634Z" fill="white"/>
<path d="M6.62654 11.4416L7.54665 12.3626C8.05044 12.8668 8.48076 13.28 8.49825 13.28C8.51924 13.28 8.94606 12.8668 9.45335 12.3591L10.37 11.4416L8.49825 9.56822L6.62654 11.4416Z" fill="white"/>
</svg>
