<svg width="17" height="23" viewBox="0 0 17 23" fill="none" xmlns="http://www.w3.org/2000/svg">
<path d="M14.4018 12.8512C13.6595 14.3779 12.6537 15.8988 11.6252 17.2644C10.6495 18.5518 9.60627 19.7851 8.5 20.9587C7.3937 19.7851 6.35047 18.5518 5.37483 17.2644C4.34633 15.8988 3.3405 14.3779 2.59817 12.8512C1.84733 11.3088 1.41667 9.86413 1.41667 8.625C1.41667 6.71876 2.16294 4.89059 3.49133 3.54267C4.81971 2.19475 6.62138 1.4375 8.5 1.4375C10.3786 1.4375 12.1803 2.19475 13.5087 3.54267C14.8371 4.89059 15.5833 6.71876 15.5833 8.625C15.5833 9.86413 15.1512 11.3088 14.4018 12.8512ZM8.5 23C8.5 23 17 14.8264 17 8.625C17 6.33751 16.1045 4.14371 14.5104 2.5262C12.9163 0.908703 10.7543 0 8.5 0C6.24566 0 4.08365 0.908703 2.48959 2.5262C0.895533 4.14371 3.35923e-08 6.33751 0 8.625C0 14.8264 8.5 23 8.5 23Z" fill="white"/>
<path d="M14.4018 12.8512C13.6595 14.3779 12.6537 15.8988 11.6252 17.2644C10.6495 18.5518 9.60627 19.7851 8.5 20.9587C7.3937 19.7851 6.35047 18.5518 5.37483 17.2644C4.34633 15.8988 3.3405 14.3779 2.59817 12.8512C1.84733 11.3088 1.41667 9.86413 1.41667 8.625C1.41667 6.71876 2.16294 4.89059 3.49133 3.54267C4.81971 2.19475 6.62138 1.4375 8.5 1.4375C10.3786 1.4375 12.1803 2.19475 13.5087 3.54267C14.8371 4.89059 15.5833 6.71876 15.5833 8.625C15.5833 9.86413 15.1512 11.3088 14.4018 12.8512Z" fill="#262626"/>
<path d="M12.5 8.66797C12.5 10.8771 10.7091 12.668 8.5 12.668C6.29086 12.668 4.5 10.8771 4.5 8.66797C4.5 6.45883 6.29086 4.66797 8.5 4.66797C10.7091 4.66797 12.5 6.45883 12.5 8.66797Z" fill="white"/>
</svg>
