<svg width="3" height="9" viewBox="0 0 3 9" fill="none" xmlns="http://www.w3.org/2000/svg">
<path d="M1.088 2.192C0.789333 2.192 0.533333 2.09067 0.32 1.888C0.106667 1.67467 0 1.408 0 1.088C0 0.768 0.106667 0.506667 0.32 0.304C0.533333 0.101333 0.789333 0 1.088 0C1.376 0 1.62133 0.101333 1.824 0.304C2.03733 0.506667 2.144 0.768 2.144 1.088C2.144 1.408 2.03733 1.67467 1.824 1.888C1.62133 2.09067 1.376 2.192 1.088 2.192ZM1.088 8.656C0.789333 8.656 0.533333 8.55467 0.32 8.352C0.106667 8.13867 0 7.872 0 7.552C0 7.232 0.106667 6.97067 0.32 6.768C0.533333 6.56533 0.789333 6.464 1.088 6.464C1.376 6.464 1.62133 6.56533 1.824 6.768C2.03733 6.97067 2.144 7.232 2.144 7.552C2.144 7.872 2.03733 8.13867 1.824 8.352C1.62133 8.55467 1.376 8.656 1.088 8.656Z" fill="#262626"/>
</svg>
