<svg width="62" height="61" viewBox="0 0 62 61" fill="none" xmlns="http://www.w3.org/2000/svg">
<path d="M7.96999 13.4305C12.3112 10.3484 52.1646 10.2967 54.9953 14.2245C57.826 18.1523 58.1784 44.7423 53.6328 46.9035C49.0872 49.0647 11.5759 50.4484 7.96999 46.5535C4.36405 42.6586 3.36331 16.7193 7.96999 13.4305Z" fill="#E83A2A"/>
<path d="M27.5576 50.9029C9.43392 50.9029 7.31499 48.6148 6.5938 47.849C3.31204 44.2994 2.46399 30.0189 3.31908 21.7429C3.86644 16.4385 5.03396 13.2202 6.88275 11.907C7.73549 11.3032 9.66414 10.4317 16.5918 9.83738C20.98 9.46152 26.477 9.28063 32.0656 9.32761C37.8211 9.37695 43.2265 9.67059 47.2858 10.1522C54.1148 10.9626 55.785 12.1161 56.5203 13.1332C58.3033 15.6045 58.7896 22.6379 58.9235 26.6103C59.1419 33.1621 58.6698 39.4132 57.6643 43.3339C56.9173 46.2422 55.8931 47.9171 54.4413 48.6078C51.3052 50.0995 38.3896 50.7854 30.48 50.8841C29.4604 50.8966 28.4863 50.9029 27.5576 50.9029ZM9.06041 14.9609C9.00403 15.0102 7.69085 16.0156 7.05658 22.1234C6.62199 26.3284 6.66662 31.6704 7.17404 36.4157C7.79657 42.2322 8.83489 44.7223 9.347 45.2767C10.2867 46.113 16.7797 47.3087 30.7243 47.1161C42.8294 46.9493 51.3005 45.9086 52.8063 45.2156C52.8838 45.1545 53.7248 44.4075 54.4155 40.5455C55.1202 36.6106 55.3786 30.9727 55.1202 25.4686C54.8289 19.4337 54.0138 16.173 53.5134 15.3814C52.4093 14.5192 45.5145 13.152 31.3891 13.0769C18.0952 13.0064 10.2068 14.1622 9.07215 14.9562L9.06041 14.9609Z" fill="#E83A2A"/>
<path d="M7.97194 13.4344C12.3132 10.3523 52.1665 10.3006 54.9972 14.2284C57.828 18.1562 58.1803 44.7462 53.6347 46.9074C49.0891 49.0686 11.5779 50.4523 7.97194 46.5574C4.366 42.6625 3.36526 16.7232 7.97194 13.4344Z" fill="#E83A2A"/>
<path d="M25.9743 20.8619C24.6752 21.6888 25.0628 38.6121 25.8146 39.6081C26.5663 40.6041 40.7904 31.621 40.8022 30.0212C40.8139 28.4215 27.2757 20.035 25.9743 20.8619Z" fill="white"/>
</svg>
